<svg height='300px' width='300px'  fill="#000000" xmlns="http://www.w3.org/2000/svg" viewBox="0 0 64 64" x="0px" y="0px"><title>research-Observation-Analysis-science</title><g><path d="M41,2C28.832,2,20,9.99,20,21c0,10.7,8.356,18.529,20,18.959V44H38a1,1,0,0,0-1,1V58a4,4,0,0,0,8,0V45a1,1,0,0,0-1-1H42V39.959C53.644,39.529,62,31.7,62,21,62,9.99,53.168,2,41,2Zm2,56a2,2,0,0,1-4,0V57h4Zm0-3H39V46h4ZM41,38c-11.187,0-19-6.99-19-17S29.813,4,41,4s19,6.99,19,17S52.187,38,41,38Z"></path><path d="M41,6C30.991,6,24,12.168,24,21s6.991,15,17,15,17-6.168,17-15S51.009,6,41,6Zm0,28c-10.362,0-15-6.529-15-13S30.638,8,41,8s15,6.529,15,13S51.362,34,41,34Z"></path><path d="M46,15.382V13H44v2.382l-3,1.5-3-1.5V13H36v2.382l-3.447,1.723A1,1,0,0,0,32,18v4H30v2h2.764L36,25.618V28h2V25.618l3-1.5,3,1.5V28h2V25.618L49.447,23.9A1,1,0,0,0,50,23V19h2V17H49.236ZM34,18.618l3-1.5,3,1.5v3.764l-3,1.5-3-1.5Zm14,3.764-3,1.5-3-1.5V18.618l3-1.5,3,1.5Z"></path><rect x="50" y="13" width="2" height="2"></rect><rect x="30" y="26" width="2" height="2"></rect><path d="M4,7H23V5H3A1,1,0,0,0,2,6V61a1,1,0,0,0,1,1H34V60H4Z"></path><path d="M7,11V28a1,1,0,0,0,1,1H19V27H9V12H19V10H8A1,1,0,0,0,7,11Z"></path><rect x="7" y="37" width="2" height="3"></rect><rect x="23" y="37" width="2" height="3"></rect><rect x="11" y="32" width="2" height="8"></rect><rect x="15" y="35" width="2" height="5"></rect><rect x="19" y="33" width="2" height="7"></rect><rect x="7" y="47" width="27" height="2"></rect><rect x="7" y="51" width="27" height="2"></rect><rect x="7" y="55" width="23" height="2"></rect><rect x="13" y="43" width="21" height="2"></rect><rect x="9" y="43" width="2" height="2"></rect><rect x="11" y="23" width="2" height="2"></rect><rect x="15" y="23" width="2" height="2"></rect></g></svg>