<svg height='300px' width='300px'  fill="#000000" xmlns="http://www.w3.org/2000/svg" viewBox="0 0 64 64" x="0px" y="0px"><title>Certification-Certificate-testimonial-guarantee</title><g><path d="M9,58H44a4,4,0,0,0,4-4V23h5a1,1,0,0,0,1-1V10a4,4,0,0,0-4-4H13a4,4,0,0,0-4,4V51H6a1,1,0,0,0-1,1v2A4,4,0,0,0,9,58ZM52,10V21H48V10a2,2,0,0,1,4,0ZM11,10a2,2,0,0,1,2-2H46.556A3.959,3.959,0,0,0,46,10V54a2,2,0,0,1-4,0V52a1,1,0,0,0-1-1H11ZM7,53H40v1a3.97,3.97,0,0,0,.537,2H9a2,2,0,0,1-2-2Z"></path><rect x="14" y="37" width="29" height="2"></rect><rect x="14" y="41" width="25" height="2"></rect><rect x="14" y="46" width="6" height="2"></rect><rect x="37" y="46" width="6" height="2"></rect><rect x="20" y="33" width="23" height="2"></rect><rect x="16" y="33" width="2" height="2"></rect><rect x="27" y="16" width="2" height="2"></rect><rect x="14" y="11" width="2" height="2"></rect><rect x="18" y="11" width="2" height="2"></rect><path d="M18.293,23.293a1,1,0,0,0-.188,1.154l2,4a1,1,0,0,0,.735.54A.968.968,0,0,0,21,29a1,1,0,0,0,.707-.293l5.735-5.735c.184.017.37.028.558.028s.374-.011.558-.028l5.735,5.735A1,1,0,0,0,35,29a.968.968,0,0,0,.16-.013,1,1,0,0,0,.735-.54l2-4a1,1,0,0,0-.188-1.154l-4.12-4.12a6,6,0,1,0-11.174,0Zm2.981,3.019L20.217,24.2l3.263-3.263a6.042,6.042,0,0,0,1.776,1.4ZM35.783,24.2l-1.057,2.115L30.744,22.33a6.042,6.042,0,0,0,1.776-1.4ZM28,13a4,4,0,1,1-4,4A4,4,0,0,1,28,13Z"></path></g></svg>