<svg height='300px' width='300px'  fill="#000000" xmlns:dc="http://purl.org/dc/elements/1.1/" xmlns:cc="http://creativecommons.org/ns#" xmlns:rdf="http://www.w3.org/1999/02/22-rdf-syntax-ns#" xmlns:svg="http://www.w3.org/2000/svg" xmlns="http://www.w3.org/2000/svg" xmlns:sodipodi="http://sodipodi.sourceforge.net/DTD/sodipodi-0.dtd" xmlns:inkscape="http://www.inkscape.org/namespaces/inkscape" version="1.1" x="0px" y="0px" viewBox="0 0 100 100"><g transform="translate(0,-952.36218)"><path style="text-indent:0;text-transform:none;direction:ltr;block-progression:tb;baseline-shift:baseline;color:#000000;enable-background:accumulate;" d="m 50,958.38797 c -1.1046,0 -2,0.8954 -2,2 l 0,12 c 0,1.1046 0.8954,2 2,2 1.1046,0 2,-0.8954 2,-2 l 0,-12 c 0,-1.1046 -0.8954,-2 -2,-2 z m -29,10.375 c -0.5119,0 -1.0158,0.2032 -1.4062,0.5938 -0.781,0.781 -0.781,2.0626 0,2.8437 l 8.5,8.4687 c 0.781,0.7811 2.0316,0.7811 2.8124,0 0.7811,-0.781 0.7811,-2.0314 0,-2.8124 l -8.4687,-8.5 c -0.3906,-0.3906 -0.9256,-0.5938 -1.4375,-0.5938 z m 58,0 c -0.5118,0 -1.047,0.2032 -1.4375,0.5938 l -8.4687,8.5 c -0.781,0.781 -0.7811,2.0314 0,2.8124 0.7809,0.7811 2.0315,0.7811 2.8124,0 l 8.5,-8.4687 c 0.7811,-0.7811 0.7811,-2.0627 0,-2.8437 -0.3904,-0.3906 -0.8944,-0.5938 -1.4062,-0.5938 z m -50.625,18.4375 -13,18.00003 c -0.5283,0.7305 -0.4735,1.8258 0.125,2.5 l 33,38 c 0.748,0.8479 2.252,0.8479 3,0 l 33,-38 c 0.5985,-0.6742 0.6533,-1.7695 0.125,-2.5 l -13,-18.00003 c -0.3733,-0.5058 -0.9964,-0.8174 -1.625,-0.8125 l -40,0 c -0.7045,-0.023 -1.2936,0.347 -1.625,0.8125 z m 4.4688,3.1875 13.1874,0 -8.8124,11.96883 z m 21.125,0 13.1874,0 -4.375,11.96883 z m -3.9688,1.4062 9.3125,12.59383 -18.5937,0 z m -20.5938,0.7813 4.3126,11.81253 -12.8438,0 z m 41.1876,0 8.5312,11.81253 -12.8438,0 z m -49.2188,15.81253 13.7812,0 9.9376,27.3125 z m 18.0312,0 21.2188,0 L 50,1037.5442 z m 25.4376,0 13.7812,0 -23.7188,27.3125 z" fill="#000000" fill-opacity="1" stroke="none" marker="none" visibility="visible" display="inline" overflow="visible"></path></g></svg>