<svg height='300px' width='300px'  fill="#000000" xmlns="http://www.w3.org/2000/svg" viewBox="0 0 64 64" x="0px" y="0px"><title>science-Diagram-formula-Flasks</title><g><path d="M48,24.68V21a3,3,0,0,0,0-6H45V12h5a1,1,0,0,0,1-1V6a4,4,0,0,0-4-4H10A4,4,0,0,0,6,6V46H3a1,1,0,0,0-1,1v2a4,4,0,0,0,4,4H26.875A18.986,18.986,0,1,0,48,24.68ZM49,18a1,1,0,0,1-1,1H38a1,1,0,0,1,0-2H48A1,1,0,0,1,49,18ZM49,6v4H45V6a2,2,0,0,1,4,0ZM8,6a2,2,0,0,1,2-2H43.556A3.959,3.959,0,0,0,43,6v9H38a3,3,0,0,0,0,6v3.68A18.822,18.822,0,0,0,24.261,46H8ZM6,51a2,2,0,0,1-2-2V48H24.69a18.819,18.819,0,0,0,1.1,3Zm37,9a16.993,16.993,0,0,1-3.778-33.563A1,1,0,0,0,40,25.461V21h6v4.461a1,1,0,0,0,.778.976A16.993,16.993,0,0,1,43,60Z"></path><path d="M37.462,32.351l-.924-1.773a14.052,14.052,0,0,0-6.461,7.028l1.846.771A12.047,12.047,0,0,1,37.462,32.351Z"></path><path d="M54.481,42.1a3.511,3.511,0,0,1-4.962,0l-.623-.623a5.516,5.516,0,0,0-7.792,0l-.623.623a3.511,3.511,0,0,1-4.962,0,5.528,5.528,0,0,0-5.8-1.261,1,1,0,0,0-.649.846c-.04.432-.066.868-.066,1.311a14,14,0,0,0,28,0c0-.312-.021-.619-.05-1.023a1,1,0,0,0-1.705-.636ZM43,55A12.013,12.013,0,0,1,31,43c0-.149,0-.3.01-.444a3.51,3.51,0,0,1,3.094.963,5.516,5.516,0,0,0,7.792,0l.623-.623a3.511,3.511,0,0,1,4.962,0l.623.623a5.521,5.521,0,0,0,6.827.77A12.017,12.017,0,0,1,43,55Z"></path><path d="M41.153,31.141l-.306-1.976a14.018,14.018,0,0,0-2.154.51l.614,1.9A11.938,11.938,0,0,1,41.153,31.141Z"></path><rect x="46" y="45" width="2" height="2"></rect><rect x="36" y="48" width="2" height="2"></rect><rect x="44" y="50" width="2" height="2"></rect><path d="M16,19.618V22h2V19.618l3-1.5,3,1.5V22h2V19.618L29.447,17.9A1,1,0,0,0,30,17V13h2V11H29.236L26,9.382V7H24V9.382l-3,1.5-3-1.5V7H16V9.382l-3.447,1.723A1,1,0,0,0,12,12v4H10v2h2.764Zm12-3.236-3,1.5-3-1.5V12.618l3-1.5,3,1.5ZM14,12.618l3-1.5,3,1.5v3.764l-3,1.5-3-1.5Z"></path><rect x="11" y="29" width="15" height="2"></rect><rect x="11" y="33" width="12" height="2"></rect><rect x="11" y="37" width="10" height="2"></rect><rect x="17" y="25" width="9" height="2"></rect><rect x="34" y="9" width="2" height="2"></rect><rect x="13" y="25" width="2" height="2"></rect><rect x="38" y="9" width="2" height="2"></rect></g></svg>