<?xml version="1.0" encoding="utf-8"?>
<!-- Generator: Adobe Illustrator 23.0.0, SVG Export Plug-In . SVG Version: 6.00 Build 0)  -->
<svg version="1.1" id="Layer_1" xmlns="http://www.w3.org/2000/svg" xmlns:xlink="http://www.w3.org/1999/xlink" x="0px" y="0px"
	 viewBox="0 0 1564.4 585.2" style="enable-background:new 0 0 1564.4 585.2;" xml:space="preserve">
<style type="text/css">
	.st0{fill:#404040;}
</style>
<g>
	<g>
		<g>
			<path class="st0" d="M154.6,411.3V280.7h62.8v7.5h-55.3v47.6h55.3v8h-55.3v60h55.3v7.5H154.6z"/>
			<path class="st0" d="M218,412h-64.1V280H218v8.9h-55.3v46.2H218v9.4h-55.3v58.7H218V412z M155.2,410.6h61.4v-6.1h-55.3v-61.4
				h55.3v-6.7h-55.3v-48.9h55.3v-6.1h-61.4L155.2,410.6L155.2,410.6z"/>
		</g>
		<g>
			<path class="st0" d="M311.7,410.2c-4.8,1.7-10.4,2.6-16.8,2.6c-20,0-32.9-9.5-38.6-28.4l7.5-2.6c4.3,15.6,14.6,23.4,31.1,23.4
				c9.4,0,16.8-2.3,22.1-7c5.5-4.8,8.2-11.7,8.2-20.9c0-8.7-3.2-15.8-9.7-21.6c-1.7-1.6-4.3-3.3-7.9-5.3c-3.5-2-8-4.2-13.5-6.6
				c-10.4-4.6-17.4-8.7-21.2-12.1c-6.3-5.5-9.5-12.7-9.5-21.8c0-9,3.2-16.3,9.7-21.8c6.3-5.6,14.1-8.4,23.4-8.4
				c15.4,0,26.2,5.7,32.6,17.2l-7.1,3.1c-2.4-4-5.4-7-8.8-9c-4.3-2.7-9.8-4-16.6-4c-7.2,0-13.2,2-17.9,6c-5.1,4.3-7.7,9.9-7.7,16.8
				c0,6.2,2.7,11.7,8,16.3c3,2.4,9.1,5.7,18.3,9.9c5.7,2.6,10.7,5.1,14.8,7.6s7.5,5,10.1,7.6c7.1,7,10.6,15.6,10.6,26
				C332.8,394,325.7,405,311.7,410.2z"/>
			<path class="st0" d="M294.9,413.4c-20.2,0-33.5-9.7-39.3-28.8l-0.2-0.6l8.8-3l0.2,0.7c4.2,15.4,14.2,22.9,30.5,22.9
				c9.2,0,16.5-2.3,21.7-6.8c5.3-4.6,8-11.5,8-20.3c0-8.4-3.2-15.5-9.5-21.1c-1.7-1.5-4.3-3.3-7.8-5.2c-3.5-1.9-8.1-4.2-13.5-6.6
				c-10.4-4.6-17.6-8.8-21.4-12.2c-6.5-5.6-9.7-13.1-9.7-22.3s3.3-16.7,9.9-22.3c6.4-5.7,14.5-8.6,23.9-8.6
				c15.6,0,26.7,5.9,33.2,17.5l0.4,0.7l-8.4,3.6l-0.3-0.5c-2.4-3.9-5.2-6.8-8.5-8.7c-4.2-2.6-9.6-3.9-16.3-3.9c-7,0-12.9,2-17.5,5.9
				c-4.9,4.1-7.4,9.6-7.4,16.3c0,6,2.6,11.3,7.8,15.8c3,2.4,9.1,5.7,18.1,9.8c5.7,2.6,10.7,5.1,14.9,7.6c4.2,2.5,7.6,5.1,10.2,7.7
				c7.2,7,10.8,16,10.8,26.5c0,16.8-7.2,28-21.5,33.4C307.1,412.6,301.4,413.4,294.9,413.4z M257.1,384.8
				c5.7,18.1,18.4,27.3,37.8,27.3c6.4,0,11.9-0.8,16.6-2.5c13.7-5.1,20.6-15.9,20.6-32.1c0-10.1-3.5-18.7-10.4-25.5
				c-2.5-2.5-5.9-5-9.9-7.5c-4.1-2.5-9.1-5-14.8-7.6c-9.2-4.2-15.4-7.5-18.4-10c-5.5-4.8-8.3-10.4-8.3-16.8c0-7.1,2.7-13,7.9-17.3
				c4.9-4.1,11-6.2,18.4-6.2c6.9,0,12.6,1.4,17,4.1c3.3,1.9,6.3,4.8,8.7,8.7l5.9-2.6c-6.2-10.8-16.9-16.2-31.6-16.2
				c-9.1,0-16.8,2.8-23,8.3c-6.3,5.3-9.5,12.5-9.5,21.3c0,8.8,3.1,15.9,9.3,21.3c3.7,3.4,10.8,7.4,21.1,12c5.5,2.4,10,4.7,13.6,6.6
				c3.6,2,6.3,3.8,8,5.4c6.6,5.8,9.9,13.3,9.9,22.1c0,9.3-2.9,16.5-8.5,21.4c-5.5,4.7-13.1,7.1-22.6,7.1c-16.5,0-27.1-7.8-31.6-23.2
				L257.1,384.8z"/>
		</g>
		<g>
			<path class="st0" d="M438.7,336.8c-6.8,6.1-15.3,9.2-25.3,9.2h-24.5v65.3h-7.3V280.7h31.8c10,0,18.4,2.9,25.3,8.8
				c6.8,5.8,10.3,13.7,10.3,23.6C448.9,323.1,445.5,331,438.7,336.8z M433,294.4c-5-4.1-11.6-6.2-19.8-6.2h-24.3v50.3h24.3
				c8,0,14.8-2.2,20.1-6.6c5.4-4.6,8-10.9,8-18.8C441.4,305.1,438.6,298.9,433,294.4z"/>
			<path class="st0" d="M389.6,412h-8.7V280h32.5c10.1,0,18.8,3,25.7,9c7,6,10.5,14.1,10.5,24.1c0,10.2-3.5,18.3-10.5,24.3
				c-6.9,6.2-15.6,9.3-25.7,9.3h-23.8V412z M382.3,410.6h6v-65.3h25.2c9.8,0,18.1-3,24.8-9c6.6-5.7,10-13.5,10-23.3
				c0-9.6-3.4-17.4-10-23.1c-6.7-5.7-15-8.6-24.8-8.6h-31.2L382.3,410.6L382.3,410.6z M413.3,339.2h-25v-51.7h25
				c8.3,0,15.1,2.2,20.2,6.4c5.8,4.6,8.7,11.1,8.7,19.2s-2.8,14.6-8.3,19.4C428.3,336.9,421.4,339.2,413.3,339.2z M389.6,337.8h23.6
				c7.9,0,14.5-2.2,19.7-6.4c5.2-4.5,7.8-10.6,7.8-18.3c0-7.7-2.8-13.8-8.2-18.1c-4.9-4-11.4-6.1-19.3-6.1h-23.6L389.6,337.8
				L389.6,337.8z"/>
		</g>
		<g>
			<path class="st0" d="M503.3,411.3V280.7H566v7.5h-55.3v47.6H566v8h-55.3v60H566v7.5H503.3z"/>
			<path class="st0" d="M566.7,412h-64.1V280h64.1v8.9h-55.3v46.2h55.3v9.4h-55.3v58.7h55.3V412z M503.9,410.6h61.4v-6.1h-55.3
				v-61.4h55.3v-6.7h-55.3v-48.9h55.3v-6.1h-61.4L503.9,410.6L503.9,410.6z"/>
		</g>
		<g>
			<path class="st0" d="M720.2,403.6c-6.8,5-16.1,8-27.8,9.2c-1.3,0.1-2.8,0.2-4.4,0.3c-1.6,0.1-3.2,0.1-4.9,0.1
				c-19.8,0-35.9-6.2-48.3-18.7C622.2,381.9,616,365.8,616,346s6.2-35.9,18.7-48.3c12.6-12.6,28.7-18.8,48.5-18.8
				c11.2,0,21.3,1.7,30.4,4.9c5.4,2.1,10.5,5.1,15.5,9v9.3c-5.1-4.3-10.7-7.7-16.8-10.3c-9.3-3.8-19-5.7-29.1-5.7
				c-17.3,0-31.6,5.6-42.8,16.8c-11.2,11.2-16.8,25.5-16.8,43s5.5,31.7,16.7,42.8c11.2,11.2,25.5,16.8,43,16.8
				c10.8,0,20.3-2,28.4-5.8c4.6-2.3,10.5-6,17.6-11.2v8.6L720.2,403.6z"/>
			<path class="st0" d="M683.1,413.8c-19.8,0-36.3-6.3-48.8-18.9c-12.6-12.6-19-29.1-19-49c0-19.8,6.3-36.3,18.9-48.8
				c12.6-12.6,29.1-19,49-19c11.3,0,21.5,1.7,30.6,5c5.4,2.1,10.7,5.1,15.7,9.1l0.3,0.2v11.1l-1.1-0.9c-5-4.2-10.7-7.6-16.7-10.1
				c-9.1-3.7-18.8-5.6-28.8-5.6c-17,0-31.3,5.6-42.3,16.6c-11,11-16.6,25.3-16.6,42.5c0,17.2,5.5,31.4,16.5,42.3
				c11,11,25.3,16.6,42.5,16.6c10.7,0,20.2-2,28.1-5.8c4.6-2.3,10.4-6,17.5-11.1l1.1-0.8v10.3l-9.1,6.6c-6.9,5-16.4,8.2-28.1,9.3
				c-1.3,0.1-2.8,0.2-4.4,0.3C686.5,413.8,684.8,413.8,683.1,413.8z M683.1,279.5c-19.5,0-35.6,6.3-48,18.7
				c-12.3,12.3-18.5,28.3-18.5,47.8s6.3,35.6,18.7,48c12.3,12.3,28.3,18.5,47.8,18.5c1.7,0,3.3,0,4.9-0.1c1.6-0.1,3-0.2,4.4-0.3
				c11.5-1.1,20.8-4.1,27.5-9l8.5-6.2v-6.9c-6.6,4.7-12.2,8.3-16.6,10.4c-8.1,3.9-17.8,5.9-28.7,5.9c-17.5,0-32.2-5.7-43.5-17
				c-11.2-11.2-16.8-25.7-16.8-43.3s5.7-32.2,17-43.5c11.3-11.3,25.9-17,43.3-17c10.2,0,20,1.9,29.3,5.7c5.7,2.4,11,5.6,15.9,9.5
				v-7.6c-4.8-3.7-9.9-6.7-15.1-8.7C704.3,281.2,694.2,279.5,683.1,279.5z"/>
		</g>
		<g>
			<path class="st0" d="M776.4,411.3V280.7h7.3v130.6H776.4z"/>
			<path class="st0" d="M784.4,412h-8.7V280h8.7V412z M777.1,410.6h6V281.3h-6V410.6z"/>
		</g>
		<g>
			<path class="st0" d="M843.7,343.2v68.1h-7.3V280.7h56.7v7.5h-49.4v47.6h49.4v7.5H843.7z"/>
			<path class="st0" d="M844.4,412h-8.7V280h58.1v8.9h-49.4v46.2h49.4v8.9h-49.4V412z M837.1,410.6h6v-68.1h49.4v-6.2h-49.4v-48.9
				h49.4v-6.1h-55.4V410.6z"/>
		</g>
		<g>
			<path class="st0" d="M945.7,411.3V280.7h7.3v130.6H945.7z"/>
			<path class="st0" d="M953.7,412H945V280h8.7V412z M946.3,410.6h6V281.3h-6V410.6z"/>
		</g>
		<g>
			<path class="st0" d="M1107.8,403.6c-6.8,5-16.1,8-27.8,9.2c-1.3,0.1-2.8,0.2-4.4,0.3c-1.6,0.1-3.2,0.1-4.9,0.1
				c-19.8,0-35.9-6.2-48.3-18.7c-12.6-12.6-18.8-28.7-18.8-48.5s6.2-35.9,18.7-48.3c12.6-12.6,28.7-18.8,48.5-18.8
				c11.2,0,21.3,1.7,30.4,4.9c5.4,2.1,10.6,5.1,15.6,9v9.3c-5.1-4.3-10.7-7.7-16.8-10.3c-9.3-3.8-19-5.7-29.1-5.7
				c-17.3,0-31.6,5.6-42.8,16.8c-11.2,11.2-16.8,25.5-16.8,43s5.5,31.7,16.6,42.8c11.2,11.2,25.6,16.8,43,16.8
				c10.8,0,20.3-2,28.4-5.8c4.6-2.3,10.5-6,17.6-11.2v8.6L1107.8,403.6z"/>
			<path class="st0" d="M1070.6,413.8c-19.8,0-36.3-6.3-48.8-18.9c-12.6-12.6-19-29.1-19-49c0-19.8,6.3-36.3,18.9-48.8
				c12.6-12.6,29.1-19,49-19c11.3,0,21.5,1.7,30.6,5c5.4,2.1,10.7,5.1,15.7,9.1l0.3,0.2v11.1l-1.1-0.9c-5.1-4.2-10.7-7.6-16.7-10.1
				c-9.1-3.7-18.8-5.6-28.8-5.6c-17.1,0-31.3,5.6-42.3,16.6c-11,11-16.6,25.3-16.6,42.5c0,17.2,5.5,31.4,16.4,42.3
				c11,11,25.3,16.6,42.5,16.6c10.7,0,20.1-2,28.1-5.8c4.6-2.3,10.4-6,17.5-11.1l1.1-0.8v10.3l-9.1,6.6c-6.9,5-16.4,8.2-28.1,9.3
				c-1.3,0.1-2.8,0.2-4.4,0.3C1073.9,413.8,1072.3,413.8,1070.6,413.8z M1070.6,279.5c-19.5,0-35.6,6.3-48,18.7
				c-12.3,12.3-18.5,28.3-18.5,47.8s6.3,35.6,18.7,48c12.3,12.3,28.3,18.5,47.8,18.5c1.7,0,3.3,0,4.9-0.1c1.6-0.1,3-0.2,4.3-0.3
				c11.5-1.1,20.8-4.1,27.5-9l8.5-6.2v-6.9c-6.6,4.7-12.2,8.3-16.6,10.4c-8.1,3.9-17.8,5.9-28.7,5.9c-17.6,0-32.2-5.7-43.5-17
				c-11.2-11.2-16.8-25.7-16.8-43.3s5.7-32.2,17-43.5c11.3-11.3,25.9-17,43.3-17c10.2,0,20,1.9,29.3,5.7c5.7,2.4,11,5.6,15.9,9.5
				v-7.6c-4.8-3.7-9.9-6.7-15.1-8.7C1091.8,281.2,1081.7,279.5,1070.6,279.5z"/>
		</g>
		<g>
			<path class="st0" d="M1266.6,394.3c-12.6,12.6-28.7,18.8-48.5,18.8s-35.9-6.2-48.3-18.7c-12.6-12.6-18.8-28.7-18.8-48.5
				s6.2-35.9,18.7-48.3c12.6-12.6,28.7-18.8,48.5-18.8c19.6,0,35.8,6.2,48.5,18.7c12.6,12.6,18.8,28.7,18.8,48.5
				S1279.1,381.8,1266.6,394.3z M1261.2,303c-11.2-11.2-25.6-16.8-43.2-16.8c-17.3,0-31.6,5.6-42.8,16.8
				c-11.2,11.2-16.8,25.5-16.8,43s5.6,31.7,16.7,42.8c11.2,11.2,25.6,16.8,43,16.8c17.6,0,31.9-5.5,43.2-16.5
				c11.1-11.1,16.7-25.5,16.7-43.2C1277.9,328.4,1272.3,314.1,1261.2,303z"/>
			<path class="st0" d="M1218.1,413.8c-19.8,0-36.3-6.3-48.8-18.9c-12.6-12.6-19-29.1-19-49c0-19.8,6.3-36.3,18.9-48.8
				c12.6-12.6,29.1-19,49-19c19.7,0,36.2,6.3,49,18.8c12.6,12.6,19.1,29.1,19.1,49c0,19.8-6.4,36.3-19.1,48.8
				C1254.4,407.4,1237.9,413.8,1218.1,413.8z M1218.1,279.5c-19.5,0-35.6,6.3-48,18.7c-12.3,12.3-18.5,28.3-18.5,47.8
				s6.3,35.6,18.7,48c12.3,12.3,28.3,18.5,47.8,18.5s35.6-6.3,48-18.7c12.4-12.3,18.7-28.3,18.7-47.8s-6.3-35.6-18.7-48
				C1253.6,285.7,1237.4,279.5,1218.1,279.5z M1218.1,406.3c-17.6,0-32.2-5.7-43.5-17c-11.2-11.2-16.8-25.7-16.8-43.3
				s5.7-32.2,17-43.5c11.3-11.3,25.9-17,43.3-17c17.7,0,32.3,5.7,43.7,17c11.2,11.2,16.8,25.8,16.8,43.5c0,17.8-5.7,32.5-16.8,43.7
				C1250.4,400.7,1235.7,406.3,1218.1,406.3z M1218.1,286.8c-17.1,0-31.3,5.6-42.3,16.6c-11,11-16.6,25.3-16.6,42.5
				c0,17.2,5.5,31.4,16.4,42.3c11,11,25.3,16.6,42.5,16.6c17.3,0,31.7-5.5,42.7-16.3c10.9-10.9,16.4-25.3,16.4-42.7
				c0-17.3-5.5-31.6-16.4-42.5C1249.7,292.4,1235.4,286.8,1218.1,286.8z"/>
		</g>
		<g>
			<path class="st0" d="M1386.6,410.2c-4.8,1.7-10.4,2.6-16.8,2.6c-20,0-32.9-9.5-38.6-28.4l7.5-2.6c4.3,15.6,14.6,23.4,31.1,23.4
				c9.4,0,16.8-2.3,22.1-7c5.5-4.8,8.2-11.7,8.2-20.9c0-8.7-3.2-15.8-9.7-21.6c-1.7-1.6-4.3-3.3-7.9-5.3c-3.5-2-8.1-4.2-13.5-6.6
				c-10.4-4.6-17.4-8.7-21.2-12.1c-6.3-5.5-9.5-12.7-9.5-21.8c0-9,3.2-16.3,9.7-21.8c6.3-5.6,14.2-8.4,23.4-8.4
				c15.4,0,26.2,5.7,32.6,17.2l-7.1,3.1c-2.4-4-5.4-7-8.8-9c-4.3-2.7-9.8-4-16.7-4c-7.2,0-13.2,2-17.9,6c-5.1,4.3-7.7,9.9-7.7,16.8
				c0,6.2,2.7,11.7,8.1,16.3c3.1,2.4,9.2,5.7,18.3,9.9c5.7,2.6,10.7,5.1,14.8,7.6c4.2,2.5,7.5,5,10.1,7.6c7.1,7,10.6,15.6,10.6,26
				C1407.6,394,1400.6,405,1386.6,410.2z"/>
			<path class="st0" d="M1369.7,413.4c-20.3,0-33.4-9.7-39.3-28.8l-0.2-0.6l8.8-3l0.2,0.7c4.2,15.4,14.2,22.9,30.4,22.9
				c9.2,0,16.5-2.3,21.7-6.8c5.3-4.6,8-11.5,8-20.3c0-8.4-3.2-15.5-9.5-21.1c-1.7-1.5-4.3-3.3-7.8-5.2c-3.5-1.9-8.1-4.2-13.5-6.6
				c-10.4-4.6-17.6-8.8-21.4-12.2c-6.5-5.6-9.7-13.1-9.7-22.3s3.3-16.7,9.9-22.3c6.4-5.7,14.5-8.6,23.9-8.6
				c15.6,0,26.7,5.9,33.2,17.5l0.4,0.7l-8.4,3.6l-0.3-0.5c-2.4-3.9-5.2-6.8-8.5-8.7c-4.2-2.6-9.7-3.9-16.3-3.9c-7,0-12.9,2-17.5,5.9
				c-4.9,4.1-7.4,9.6-7.4,16.3c0,6,2.6,11.3,7.8,15.8c3,2.4,9.1,5.7,18.1,9.8c5.7,2.6,10.7,5.1,14.9,7.6c4.2,2.5,7.6,5.1,10.2,7.7
				c7.2,7,10.8,16,10.8,26.5c0,16.8-7.2,28-21.5,33.4C1382,412.6,1376.3,413.4,1369.7,413.4z M1332,384.8
				c5.7,18.1,18.4,27.3,37.8,27.3c6.3,0,11.9-0.8,16.6-2.5c13.7-5.1,20.6-15.9,20.6-32.1c0-10.1-3.5-18.7-10.4-25.5
				c-2.5-2.5-5.8-5-9.9-7.5c-4.1-2.5-9.1-5-14.8-7.6c-9.2-4.2-15.4-7.5-18.4-10c-5.5-4.8-8.3-10.4-8.3-16.8c0-7.1,2.7-13,7.9-17.3
				c4.9-4.1,11-6.2,18.4-6.2c6.9,0,12.7,1.4,17,4.1c3.3,1.9,6.3,4.8,8.7,8.7l5.9-2.6c-6.2-10.8-16.9-16.2-31.6-16.2
				c-9.1,0-16.8,2.8-23,8.3c-6.3,5.3-9.5,12.5-9.5,21.3c0,8.8,3.1,15.9,9.3,21.3c3.7,3.4,10.8,7.4,21.1,12c5.5,2.4,10,4.7,13.6,6.6
				c3.6,2,6.3,3.8,8,5.4c6.6,5.8,9.9,13.3,9.9,22.1c0,9.3-2.8,16.5-8.5,21.4c-5.5,4.7-13.1,7.1-22.6,7.1c-16.5,0-27.1-7.8-31.6-23.2
				L1332,384.8z"/>
		</g>
	</g>
	<g>
		<g>
			<path class="st0" d="M196.1,536.4c0,8.1-6.3,15.3-19.9,15.3c-12.6,0-23.5,0-23.5,0v-1.6c3.6,0,5.4-1.6,5.4-4.8
				c0-3.2,0-37.1,0-40.4c0-3.2-1.8-4.8-5.4-4.8v-1.6c0,0,9,0,21.8,0s18,6.5,18,12.9c0,8.9-9,11.3-9,11.3S196.1,524.3,196.1,536.4z
				 M163.6,522.7c0,0,2.7,0,9,0c6.3,0,14.5-4,14.5-11.3c0-7.3-7.2-11.3-14.5-11.3c-7.2,0-9,0-9,0V522.7z M190.7,537.3
				c0-11.3-9-12.9-19.9-12.9h-7.2c0,0,0,17.8,0,21c0,3.2,1.8,4.8,5.4,4.8c3.6,0,2.7,0,8.1,0C184.4,550.2,190.7,544.5,190.7,537.3z"
				/>
			<path class="st0" d="M176.3,552.5h-24.2v-3h0.7c3.2,0,4.7-1.3,4.7-4.2V505c0-2.8-1.5-4.2-4.7-4.2h-0.7v-3h22.4
				c13.8,0,18.7,7.3,18.7,13.6c0,6.5-4.7,9.8-7.5,11.1c3.8,1.1,11.1,4.5,11.1,13.9C196.8,543.8,191.4,552.5,176.3,552.5z
				 M153.5,551.1h22.8c14.2,0,19.2-7.9,19.2-14.7c0-11.4-11.6-13-12.1-13L180,523l3.3-0.9c0.4-0.1,8.5-2.4,8.5-10.7
				c0-5.6-4.5-12.2-17.3-12.2h-21.1v0.3c4.5,0.3,5.4,3.1,5.4,5.5v40.4c0,2.4-1,5.2-5.4,5.5L153.5,551.1L153.5,551.1z M177.2,550.8
				H169c-5,0-6.1-3-6.1-5.5v-21.7h7.9c10.7,0,20.6,1.7,20.6,13.6C191.4,544.7,185,550.8,177.2,550.8z M164.3,525v20.3
				c0,2.8,1.5,4.2,4.7,4.2h8.1c7.1,0,12.9-5.5,12.9-12.2c0-10.2-7.4-12.2-19.2-12.2H164.3z M172.7,523.4h-9.7v-24h9.7
				c7.3,0,15.1,4.2,15.1,12C187.8,519.2,179,523.4,172.7,523.4z M164.3,522h8.4c5.8,0,13.8-3.7,13.8-10.6c0-6.9-7.1-10.6-13.8-10.6
				h-8.4V522z"/>
		</g>
		<g>
			<path class="st0" d="M277.6,498.5v1.6c-3.6,0-5.4,1.6-5.4,4.8c0,3.2,0,18.6,0,25.8c0,11.3,5.4,19.4,18.1,19.4s18.1-8.1,18.1-19.4
				V505c0-3.2-1.8-4.8-5.4-4.8v-1.6h12.6v1.6c-3.6,0-5.4,1.6-5.4,4.8v26.6c0,12.9-8.1,20.2-19.9,20.2c-16.3,0-23.5-8.1-23.5-21V505
				c0-3.2-1.8-4.8-5.4-4.8v-1.6H277.6z"/>
			<path class="st0" d="M290.3,552.5c-15.8,0-24.2-7.5-24.2-21.7V505c0-2.8-1.5-4.2-4.7-4.2h-0.7v-3h17.6v3h-0.7
				c-3.2,0-4.7,1.3-4.7,4.2v25.8c0,12,6.2,18.7,17.4,18.7s17.4-6.6,17.4-18.7V505c0-2.8-1.5-4.2-4.7-4.2h-0.7v-3h14v3h-0.7
				c-3.2,0-4.7,1.3-4.7,4.2v26.6C310.9,544.5,303,552.5,290.3,552.5z M262.1,499.5c4.5,0.3,5.4,3.1,5.4,5.5v25.8
				c0,13.3,7.9,20.3,22.8,20.3c11.8,0,19.2-7.5,19.2-19.5V505c0-2.4,1-5.2,5.4-5.5v-0.3h-11.3v0.3c4.5,0.3,5.4,3.1,5.4,5.5v25.8
				c0,12.7-6.8,20-18.8,20c-11.9,0-18.8-7.3-18.8-20V505c0-2.4,1-5.2,5.4-5.5v-0.3h-14.9L262.1,499.5L262.1,499.5z"/>
		</g>
		<g>
			<path class="st0" d="M423.3,498.5l3.6,11.3h-1.8c0,0-1.8-9.7-14.5-9.7c-7.2,0-18.1,0-18.1,0v22.6H407c0,0,5.4,0,5.4-3.2v-1.6h1.8
				v11.3h-1.8c0,0,0,0,0-1.6s-0.9-3.2-5.4-3.2c-4.5,0-14.5,0-14.5,0v21c0,3.2,1.8,4.8,5.4,4.8h18.1c9.9,0,11.8-14.5,11.8-14.5h1.8
				l-1.8,16.1h-46.1v-1.6c3.6,0,5.4-1.6,5.4-4.8c0-3.2,0-37.1,0-40.4c0-3.2-1.8-4.8-5.4-4.8v-1.6L423.3,498.5L423.3,498.5z"/>
			<path class="st0" d="M428.4,552.5h-47.4v-3h0.7c3.2,0,4.7-1.3,4.7-4.2V505c0-2.8-1.5-4.2-4.7-4.2h-0.7v-3h42.7l4,12.7h-3.3
				l-0.1-0.5c-0.1-0.4-1.9-9.1-13.8-9.1h-17.4v21.2H407c0,0,4.7,0,4.7-2.5v-2.3h3.2v12.7h-3.2v-2.3c0-0.7,0-2.5-4.7-2.5h-13.8v20.3
				c0,2.8,1.5,4.2,4.7,4.2h18.1c9.2,0,11.1-13.8,11.1-13.9l0.1-0.6h3.2L428.4,552.5z M382.4,551.1h44.8l1.6-14.8h-0.5
				c-0.5,2.8-3,14.5-12.3,14.5H398c-5,0-6.1-3-6.1-5.5v-21.7H407c4,0,6.1,1.3,6.1,3.9v0.9h0.5v-9.9h-0.5v0.9c0,3.9-5.9,3.9-6.1,3.9
				h-15.1v-24h18.8c11.3,0,14.3,7.5,15,9.7h0.4l-3.2-9.9h-40.4v0.3c4.5,0.3,5.4,3.1,5.4,5.5v40.4c0,2.4-1,5.2-5.4,5.5L382.4,551.1
				L382.4,551.1z"/>
		</g>
		<g>
			<path class="st0" d="M550.9,498.5v1.6c-3.6,0-5.4,1.6-5.4,4.8c0,2.5,0,46.8,0,46.8h-1.8L503.9,502v43.3c0,3.2,1.8,4.8,5.4,4.8
				v1.6h-12.6v-1.6c3.6,0,5.4-1.6,5.4-4.8c0-2.5,0-27.4,0-40.4c0-3.2-1.8-4.8-5.4-4.8v-1.6h12.6l34.4,43.3V505
				c0-3.2-1.8-4.8-5.4-4.8v-1.6L550.9,498.5L550.9,498.5z"/>
			<path class="st0" d="M546.1,552.5h-2.8l-38.8-48.5v41.4c0,2.8,1.5,4.2,4.7,4.2h0.7v3h-14v-3h0.7c3.2,0,4.7-1.3,4.7-4.2V505
				c0-2.8-1.5-4.2-4.7-4.2H496v-3h13.6l33.4,42V505c0-2.8-1.5-4.2-4.7-4.2h-0.7v-3h14v3h-0.7c-3.2,0-4.7,1.3-4.7,4.2V552.5z
				 M544,551.1h0.8V505c0-2.4,1-5.2,5.4-5.5v-0.3h-11.3v0.3c4.5,0.3,5.4,3.1,5.4,5.5v38.7l-35.4-44.5h-11.5v0.3
				c4.5,0.3,5.4,3.1,5.4,5.5v40.4c0,2.4-1,5.2-5.4,5.5v0.3h11.3v-0.3c-4.5-0.3-5.4-3.1-5.4-5.5V500L544,551.1z"/>
		</g>
		<g>
			<path class="st0" d="M642.2,498.5c14.5,0,27.1,7.6,27.1,26.6c0,19-12.7,26.6-27.1,26.6c-14.5,0-27.1-9.1-27.1-26.6
				C615,507.6,627.7,498.5,642.2,498.5z M620.9,525.1c0,15.3,8.5,25.1,21.2,25.1s21.2-9.8,21.2-25.1c0-15.3-8.5-25.1-21.2-25.1
				C629.4,500,620.9,509.9,620.9,525.1z"/>
			<path class="st0" d="M642.2,552.5c-13.8,0-27.8-8.4-27.8-27.3c0-18.9,14-27.3,27.8-27.3c17.4,0,27.8,10.2,27.8,27.3
				C669.9,542.2,659.5,552.5,642.2,552.5z M642.2,499.2c-13.2,0-26.4,8-26.4,26c0,17.9,13.3,26,26.4,26c16.5,0,26.4-9.7,26.4-26
				C668.6,508.9,658.7,499.2,642.2,499.2z M642.2,550.9c-13.1,0-21.9-10.4-21.9-25.8c0-15.4,8.8-25.8,21.9-25.8s21.9,10.4,21.9,25.8
				C664.1,540.6,655.3,550.9,642.2,550.9z M642.2,500.7c-12.5,0-20.5,9.6-20.5,24.4c0,14.8,8.1,24.4,20.5,24.4
				c12.5,0,20.5-9.6,20.5-24.4C662.7,510.3,654.6,500.7,642.2,500.7z"/>
		</g>
		<g>
			<path class="st0" d="M774.3,538.9c0-17.8-38.1-9.7-38.1-27.5c0-8.8,10.2-12.8,20.1-12.8c12.7,0,14.5,4.8,16.3,4.8
				c1,0,1.7-0.7,1.7-4.8h1.9v15.3h-1.8c0-6.4-5.6-13.7-18.1-13.7c-7.5,0-14.5,4-14.5,10.5c0,15.3,38,5.7,38,27.4
				c0,9.7-7.2,13.7-23.5,13.7c-10.8,0-16.3-4.8-18.1-4.8c-1,0-1.8,1.6-1.8,4.8h-1.8v-16.1h1.8c0,8,11.7,14.5,19.9,14.5
				C764.3,550.2,774.3,546.2,774.3,538.9z"/>
			<path class="st0" d="M756.2,552.5c-7.8,0-13.1-2.6-15.9-4c-0.9-0.5-1.8-0.9-2.2-0.9c-0.3,0-1.1,1-1.1,4.2v0.7h-3.2V535h3.2v0.7
				c0,7.7,11.6,13.8,19.2,13.8c8.4,0,17.4-4.1,17.4-10.6c0-8.3-9-10.6-18.5-13.1c-9.6-2.5-19.6-5-19.6-14.5
				c0-9.3,10.8-13.5,20.7-13.5c9.4,0,13,2.7,15,4.1c0.6,0.4,1,0.8,1.3,0.8c0.3,0,1,0,1-4.2v-0.7h3.3v16.7h-3.2v-0.7
				c0-6.5-6-13-17.4-13c-6.7,0-13.8,3.4-13.8,9.8c0,6.5,7.4,8.2,16,10.1c10.3,2.3,22,5,22,17.3C780.3,548,772.9,552.5,756.2,552.5z
				 M738.1,546.3c0.7,0,1.5,0.4,2.8,1c2.9,1.4,7.8,3.8,15.3,3.8c16,0,22.8-3.9,22.8-13c0-11.3-10.6-13.7-20.9-16
				c-8.8-2-17-3.9-17-11.4c0-7.3,7.8-11.2,15.1-11.2c11.9,0,18.3,6.8,18.7,13.7h0.5v-14h-0.5c-0.1,2.9-0.5,4.8-2.4,4.8
				c-0.7,0-1.3-0.4-2.1-1c-1.8-1.3-5.2-3.8-14.2-3.8c-9.3,0-19.4,3.8-19.4,12.2c0,8.4,9,10.7,18.6,13.1c9.6,2.5,19.5,5,19.5,14.4
				c0,8.3-11,12-18.8,12c-7.9,0-19.9-6.2-20.5-14.5h-0.5v14.8h0.5C735.8,548.1,736.7,546.3,738.1,546.3z"/>
		</g>
		<g>
			<path class="st0" d="M989.5,550.2h0.9v1.5h-14.8v-1.5c0,0,0.5,0,2.4,0s1.6-0.7,0.4-3.3c-0.7-1.6-6.9-14-6.9-14h-25.9
				c0,0-5.2,11.5-6.6,14.2c-1.3,2.8-0.2,3.2,1.9,3.2c2.2,0,2.2,0,2.2,0v1.5h-12.3v-1.5c0,0,0.3,0.1,1.8,0.1c1.6,0,2.7-0.7,3.3-2.1
				c0.6-1.5,22.9-49.7,22.9-49.7h1.8c0,0,23,46.2,24.3,48.9C986.1,550.2,987,550.2,989.5,550.2z M970.7,531.4l-12.6-25.6l-11.8,25.6
				H970.7z"/>
			<path class="st0" d="M991,552.5h-16.2v-2.8h3.1c0.6,0,0.7-0.1,0.7-0.1c0-0.2-0.6-1.5-1-2.2c-0.7-1.5-5.6-11.6-6.7-13.7H946
				c-0.9,2-5.2,11.4-6.4,13.8c-0.6,1.4-0.5,1.8-0.4,1.9c0.2,0.3,1.3,0.3,1.7,0.3h2.8l0,0.7v2.1h-13.6v-3.1l0.9,0.3c0,0,0.3,0,1.6,0
				c1.3,0,2.2-0.5,2.7-1.7c0.6-1.4,22-47.7,22.9-49.7l0.2-0.4h2.7l0.2,0.4c0,0,23,46.2,24.3,48.9c1.1,2.5,1.7,2.5,4,2.5h1.6
				L991,552.5L991,552.5z M976.2,551.1h13.5v-0.2h-0.2c-2.6,0-3.8-0.1-5.2-3.2c-1.3-2.6-21.9-44.1-24.1-48.5h-1
				c-2.1,4.6-22.1,48-22.7,49.3c-0.8,1.7-2.1,2.5-4,2.5c-0.4,0-0.8,0-1.1,0v0.1h10.9V551h-1.5c-1.1,0-2.3-0.1-2.8-0.9
				c-0.5-0.7-0.3-1.7,0.3-3.2c1.3-2.7,6.5-14.1,6.6-14.2l0.2-0.4h26.8l0.2,0.4c0.3,0.5,6.2,12.5,6.9,14.1c0.8,1.7,1.4,2.8,0.9,3.6
				c-0.4,0.6-1.2,0.7-1.9,0.7L976.2,551.1L976.2,551.1L976.2,551.1z M971.8,532.1h-26.5l12.9-27.8L971.8,532.1z M947.3,530.8h22.2
				l-11.5-23.3L947.3,530.8z"/>
		</g>
		<g>
			<path class="st0" d="M1072.8,498.5v1.6c-3.6,0-5.4,1.6-5.4,4.8v40.4c0,3.2,1.8,4.8,5.4,4.8v1.6h-16.3v-1.6c3.6,0,5.4-1.6,5.4-4.8
				V505c0-3.2-1.8-4.8-5.4-4.8v-1.6H1072.8z"/>
			<path class="st0" d="M1073.5,552.5h-17.6v-3h0.7c3.2,0,4.7-1.3,4.7-4.2V505c0-2.8-1.5-4.2-4.7-4.2h-0.7v-3h17.6v3h-0.7
				c-3.2,0-4.7,1.3-4.7,4.2v40.4c0,2.8,1.5,4.2,4.7,4.2h0.7V552.5z M1057.2,551.1h14.9v-0.3c-4.5-0.3-5.4-3.1-5.4-5.5V505
				c0-2.4,1-5.2,5.4-5.5v-0.3h-14.9v0.3c4.5,0.3,5.4,3.1,5.4,5.5v40.4c0,2.4-1,5.2-5.4,5.5V551.1z"/>
		</g>
		<g>
			<path class="st0" d="M1188.6,550.2v1.6h-9.9c0,0-4.5-1.6-4.5-8.1s-6.3-19.4-19.9-19.4h-3.6c0,0,0,17.8,0,21
				c0,3.2,1.8,4.8,5.4,4.8v1.6c-9.7,0-16.3,0-16.3,0v-1.6c3.6,0,5.4-1.6,5.4-4.8c0-3.2,0-37.1,0-40.4c0-3.2-1.8-4.8-5.4-4.8v-1.6
				c0,0,9.9,0,22.7,0c12.7,0,17.1,6.5,17.1,12.9c0,7.3-4.5,12.9-12.7,12.9c2.7,0,12.7,7.3,12.7,18.6c0,4,3.6,7.3,7.2,7.3
				L1188.6,550.2L1188.6,550.2z M1159.7,522.7c6.3,0,14.4-2.4,14.4-11.3c0-8.9-7.2-11.3-14.4-11.3c-7.2,0-9,0-9,0v22.6
				C1150.7,522.7,1153.4,522.7,1159.7,522.7z"/>
			<path class="st0" d="M1189.3,552.5l-10.8,0c-0.2-0.1-5-1.8-5-8.7c0-5.5-5.5-18.7-19.2-18.7h-2.9v20.3c0,2.8,1.5,4.2,4.7,4.2h0.7
				v3h-17.6v-3h0.7c3.2,0,4.7-1.3,4.7-4.2V505c0-2.8-1.5-4.2-4.7-4.2h-0.7v-3h23.4c16.5,0,17.8,10.4,17.8,13.6
				c0,7.1-4.1,12.1-10.3,13.3c4.3,2.5,10.3,9.2,10.3,18.2c0,3.8,3.5,6.6,6.6,6.6h2.5L1189.3,552.5L1189.3,552.5z M1178.8,551.1h9.1
				v-0.3h-1.1c-4.2,0-7.9-3.7-7.9-7.9c0-11-9.6-17.9-12-17.9v-1.4c7.3,0,12-4.8,12-12.2c0-3.7-1.6-12.2-16.4-12.2h-22v0.3
				c4.5,0.3,5.4,3.1,5.4,5.5v40.4c0,2.4-1,5.2-5.4,5.5v0.3h14.9v-0.3c-4.5-0.3-5.4-3.1-5.4-5.5v-21.7h4.3c13.7,0,20.6,12.8,20.6,20
				C1174.8,549.1,1178.2,550.8,1178.8,551.1z M1159.7,523.4h-9.7v-24h9.7c9.8,0,15.1,4.3,15.1,12
				C1174.8,520.3,1167,523.4,1159.7,523.4z M1151.3,522h8.4c3.2,0,13.8-0.8,13.8-10.6c0-8.8-7.5-10.6-13.8-10.6h-8.4V522z"/>
		</g>
		<g>
			<path class="st0" d="M1296.3,498.5l3.6,11.3h-1.8c0,0-1.8-9.7-14.5-9.7c-7.2,0-18.1,0-18.1,0v22.6h14.5c0,0,5.4,0,5.4-3.2v-1.6
				h1.8v11.3h-1.8c0,0,0,0,0-1.6s-0.9-3.2-5.4-3.2s-14.5,0-14.5,0v21c0,3.2,1.8,4.8,5.4,4.8h18.1c9.9,0,11.8-14.5,11.8-14.5h1.8
				l-1.8,16.1h-46.1v-1.6c3.6,0,5.4-1.6,5.4-4.8c0-3.2,0-37.1,0-40.4c0-3.2-1.8-4.8-5.4-4.8v-1.6L1296.3,498.5L1296.3,498.5z"/>
			<path class="st0" d="M1301.4,552.5h-47.4v-3h0.7c3.2,0,4.7-1.3,4.7-4.2V505c0-2.8-1.5-4.2-4.7-4.2h-0.7v-3h42.7l4.1,12.7h-3.3
				l-0.1-0.5c-0.1-0.4-1.9-9.1-13.8-9.1h-17.4v21.2h13.8c0.1,0,4.7,0,4.7-2.5v-2.3h3.2v12.7h-3.2v-2.3c0-0.7,0-2.5-4.7-2.5h-13.8
				v20.3c0,2.8,1.5,4.2,4.7,4.2h18.1c9.2,0,11.1-13.8,11.1-13.9l0.1-0.6h3.2L1301.4,552.5z M1255.4,551.1h44.8l1.7-14.8h-0.5
				c-0.5,2.8-3,14.5-12.3,14.5H1271c-5,0-6.1-3-6.1-5.5v-21.7h15.1c4.1,0,6.1,1.3,6.1,3.9v0.9h0.4v-9.9h-0.4v0.9
				c0,3.9-5.8,3.9-6.1,3.9h-15.1v-24h18.8c11.3,0,14.3,7.5,15,9.7h0.4l-3.2-9.9h-40.4v0.3c4.5,0.3,5.4,3.1,5.4,5.5v40.4
				c0,2.4-1,5.2-5.4,5.5L1255.4,551.1L1255.4,551.1z"/>
		</g>
		<g>
			<path class="st0" d="M1408.5,538.9c0-17.8-38.1-9.7-38.1-27.5c0-8.8,10.2-12.8,20.1-12.8c12.7,0,14.5,4.8,16.3,4.8
				c1,0,1.7-0.7,1.7-4.8h1.9v15.3h-1.8c0-6.4-5.6-13.7-18.1-13.7c-7.5,0-14.5,4-14.5,10.5c0,15.3,37.9,5.7,37.9,27.4
				c0,9.7-7.2,13.7-23.5,13.7c-10.8,0-16.3-4.8-18.1-4.8c-1,0-1.8,1.6-1.8,4.8h-1.8v-16.1h1.8c0,8,11.7,14.5,19.9,14.5
				C1398.6,550.2,1408.5,546.2,1408.5,538.9z"/>
			<path class="st0" d="M1390.5,552.5c-7.8,0-13.1-2.6-15.9-4c-0.9-0.5-1.8-0.9-2.2-0.9c-0.3,0-1.1,1-1.1,4.2v0.7h-3.2V535h3.2v0.7
				c0,7.7,11.6,13.8,19.2,13.8c8.4,0,17.4-4.1,17.4-10.6c0-8.3-9-10.6-18.5-13.1c-9.6-2.5-19.6-5-19.6-14.5
				c0-9.3,10.8-13.5,20.7-13.5c9.4,0,13,2.7,14.9,4.1c0.6,0.4,1,0.8,1.3,0.8c0.3,0,1,0,1-4.2v-0.7h3.3v16.7h-3.2v-0.7
				c0-6.5-6-13-17.4-13c-6.7,0-13.8,3.4-13.8,9.8c0,6.5,7.4,8.2,16,10.1c10.3,2.3,22,5,22,17.3
				C1414.6,548,1407.2,552.5,1390.5,552.5z M1372.4,546.3c0.7,0,1.5,0.4,2.8,1c2.9,1.4,7.8,3.8,15.3,3.8c16,0,22.8-3.9,22.8-13
				c0-11.3-10.6-13.7-20.9-16c-8.8-2-17-3.9-17-11.4c0-7.3,7.8-11.2,15.1-11.2c11.9,0,18.3,6.8,18.7,13.7h0.5v-14h-0.6
				c-0.1,2.9-0.5,4.8-2.4,4.8c-0.7,0-1.3-0.4-2.1-1c-1.8-1.3-5.2-3.8-14.2-3.8c-9.3,0-19.4,3.8-19.4,12.2c0,8.4,9,10.7,18.6,13.1
				c9.6,2.5,19.5,5,19.5,14.4c0,8.3-11,12-18.8,12c-7.9,0-19.9-6.2-20.5-14.5h-0.5v14.8h0.5C1370.1,548.1,1370.9,546.3,1372.4,546.3
				z"/>
		</g>
	</g>
	<g>
		<g>
			<rect x="149.9" y="449.2" class="st0" width="1260" height="4"/>
		</g>
	</g>
	<g>
		<g>
			<g>
				<g>
					<path class="st0" d="M910.1,117.6c0,0-0.8-0.6-0.8-0.6c0.8-3.8,0.2-9-0.4-12c-0.3-1.9-0.9-3.8-1.5-5.5s-1.5-3.3-2.4-4.8
						c-1.8-2.9-4.1-5.3-6.6-7.2c-2.5-1.9-5.3-3.4-8.1-4.6c-1.4-0.6-2.9-1.1-4.4-1.5c-1.5-0.4-3-0.8-4.5-1.1c-3-0.6-6.1-0.9-9.2-1.1
						c-6.2-0.3-12.5,0.3-18.8,1.4c-6.3,1.1-12.5,2.9-18.6,5.1c-6.1,2.2-12.2,4.9-18.1,8c-11.9,6.2-23.3,14.1-34.4,23.2l-2.1,1.7
						c-0.3,0.3-0.7,0.6-1,0.9l-0.9,1c-1.3,1.3-2.5,2.6-3.7,4c-2.4,2.7-4.6,5.6-6.7,8.6s-3.9,6.2-5.4,9.6c-1.5,3.4-2.7,6.9-3.5,10.6
						c-0.8,3.7-1.2,7.4-1,11.2c0.1,3.8,0.8,7.5,1.9,11.1c1.1,3.6,2.6,7,4.4,10.3c1.8,3.2,4,6.2,6.3,9c2.3,2.8,4.9,5.3,7.6,7.6
						s5.5,4.5,8.5,6.4c5.9,3.8,12.1,6.9,18.5,9.3c12.8,4.8,26.3,6.9,39.9,6.6c-6.7,0.9-13.5,1.2-20.3,0.7c-3.4-0.2-6.8-0.6-10.2-1.2
						c-3.4-0.6-6.8-1.3-10.1-2.3c-6.7-1.9-13.3-4.5-19.6-8.1c-6.3-3.5-12.4-8-17.9-13.7c-2.7-2.9-5.3-6-7.5-9.6
						c-2.3-3.5-4.2-7.5-5.8-11.8c-1.5-4.3-2.5-8.9-2.9-13.6c-0.4-4.7-0.1-9.6,0.7-14.2c0.8-4.6,2.1-9,3.8-13.2
						c1.7-4.1,3.7-8,5.9-11.6c2.2-3.6,4.6-7,7.1-10.1c1.3-1.6,2.6-3.1,3.9-4.6l1-1.1c0.3-0.4,0.6-0.8,0.9-1.2
						c0.6-0.8,1.2-1.5,1.9-2.3c10.1-12.2,21.8-22.5,34.5-30.3c6.4-3.9,13.1-7.2,19.9-9.7c6.9-2.5,14-4.3,21.1-5.2
						c7.2-0.9,14.5-0.8,21.8,0.5c3.6,0.6,7.2,1.6,10.8,2.9c1.8,0.7,3.5,1.4,5.3,2.3c1.7,0.9,3.5,1.9,5.1,3c3.3,2.2,6.5,5,9.3,8.3
						c2.8,3.4,5.2,7.4,6.7,11.9c0.8,2.3,1.3,4.6,1.7,7c0.3,2.4,0.4,4.8,0.2,7.1C912.3,109.4,911.8,113.8,910.1,117.6z"/>
				</g>
			</g>
			<g>
				<g>
					<path class="st0" d="M638.1,114.6c-2.6-3.3-4.9-9.8-5.9-14.3c-0.5-2.3-0.8-4.6-1-7c-0.1-2.4-0.1-4.8,0.2-7.2
						c0.5-4.8,1.8-9.5,3.7-13.8c1.9-4.3,4.5-8.2,7.4-11.5c2.9-3.3,6.3-6,9.8-8.2c1.8-1.1,3.6-2,5.4-2.8s3.7-1.5,5.6-2.1
						c7.5-2.3,15.3-2.7,22.8-1.9c7.6,0.8,15,2.8,22.1,5.5c7.1,2.8,14,6.3,20.7,10.3c1.7,1,3.3,2,4.9,3.1c1.6,1.1,3.2,2.2,4.8,3.3
						c3.2,2.2,6.3,4.4,9.3,6.7c3.1,2.3,6.2,4.6,9.2,6.9c3,2.3,6.1,4.7,9.1,7c12,9.4,23.8,19,35.8,27.9c3,2.2,6,4.4,9,6.5
						c3,2.1,6,4.2,9.1,6.2c6.1,4,12.3,7.6,18.6,10.6c6.3,3,12.7,5.4,19.2,6.7c6.5,1.3,13.1,1.3,19.5-0.5c1.6-0.4,3.2-1,4.7-1.7
						s3.1-1.4,4.6-2.3c1.5-0.9,3-1.9,4.4-3s2.9-2.3,4.2-3.6c5.5-5.1,10-10.9,14.1-18.7c0,0,0.9,0.3,0.8,0.6
						c-2.9,7.8-7.2,15.6-12.1,22c-1.3,1.7-2.6,3.3-4,4.8c-1.4,1.5-2.9,2.9-4.5,4.3c-1.6,1.3-3.2,2.5-4.9,3.6c-1.7,1.1-3.4,2-5.2,2.9
						c-1.8,0.8-3.6,1.5-5.5,2.1c-1.9,0.6-3.8,1-5.6,1.3c-3.8,0.6-7.6,0.8-11.4,0.6c-7.6-0.4-15-2.3-22.1-4.9
						c-3.5-1.3-7-2.8-10.5-4.4c-3.4-1.6-6.8-3.4-10.1-5.2c-3.3-1.8-6.6-3.8-9.8-5.8c-3.2-2-6.4-4.1-9.6-6.3
						c-12.7-8.6-24.8-18-36.8-27.3l-9-7c-3-2.3-6-4.6-9-6.9c-6-4.5-12-9-17.9-13c-6-4-12.1-7.5-18.4-10.4
						c-6.3-2.9-12.7-5.2-19.1-6.5c-6.5-1.4-13-1.8-19.4-0.7c-3.2,0.5-6.3,1.4-9.3,2.7c-3,1.3-5.9,3-8.5,5.2s-5,4.9-7,8
						c-1,1.6-1.9,3.2-2.7,5c-0.8,1.8-1.4,3.7-1.9,5.6c-0.5,2-0.8,4-1,6.1c-0.2,2.1-0.3,4.2-0.1,6.3c0.2,3.7,2,9.5,4.6,13.8
						c0.2,0.3,0.5,2.3,0.2,2.3C639.1,115.7,638,114.3,638.1,114.6z"/>
				</g>
			</g>
			<g>
				<g>
					<path class="st0" d="M823.8,13.6c-0.4,2.9-1.2,5.7-2.1,8.4c-0.9,2.7-2,5.3-3.2,7.9c-2.4,5.1-5.1,9.9-7.9,14.5
						c-5.8,9.3-12.2,17.8-19,25.9c-1.7,2-3.4,4-5.2,5.9c-1.8,2-3.5,3.8-5.3,5.7c-3.6,3.8-7.3,7.4-11,10.8
						c-7.5,6.9-15.4,13.4-23.6,19.1s-16.7,10.9-25.5,15c-4.4,2.1-8.9,3.9-13.5,5.4c-2.3,0.8-4.6,1.4-6.9,2c-2.3,0.6-4.7,1.1-7,1.5
						c-2.4,0.4-4.7,0.7-7.1,0.8c-2.4,0.2-4.8,0.2-7.2,0.1c-2.4-0.1-4.8-0.4-7.2-0.8c-2.4-0.4-4.7-1-7-1.7c-2.3-0.8-4.6-1.7-6.8-2.8
						c-2.2-1.1-4.4-2.4-6.4-3.9c-4.1-3-12.2-9.6-13.7-12.7c0.8,0.6,1.1-1.1,1.1-1.1s10.4,9.2,13.8,10.8c4.2,2,8.6,3.2,13,3.9
						c8.8,1.3,17.7,0.4,26.3-1.9c2.2-0.6,4.3-1.2,6.5-2c2.1-0.7,4.3-1.5,6.4-2.4c4.2-1.7,8.4-3.7,12.5-5.8
						c8.3-4.3,16.3-9.3,24.2-14.9c7.9-5.5,15.5-11.5,23-17.9c3.7-3.2,7.4-6.5,11.1-9.9c1.8-1.7,3.6-3.4,5.4-5.1s3.6-3.5,5.3-5.3
						c7.1-7.1,13.9-14.6,20.4-22.6c1.6-2,3.2-4,4.8-6.1s3-4.2,4.5-6.4c1.5-2.2,2.8-4.5,4.1-6.8C821.7,18.7,822.9,16.3,823.8,13.6z"
						/>
				</g>
			</g>
		</g>
	</g>
</g>
</svg>
